<?xml version="1.0" encoding="utf-8"?>
<!-- Generator: Adobe Illustrator 24.2.3, SVG Export Plug-In . SVG Version: 6.00 Build 0)  -->
<svg version="1.1" id="Layer_1" xmlns="http://www.w3.org/2000/svg" xmlns:xlink="http://www.w3.org/1999/xlink" x="0px" y="0px"
	 viewBox="0 0 2000 2000" style="enable-background:new 0 0 2000 2000;" xml:space="preserve">
<style type="text/css">
	.st0{clip-path:url(#SVGID_2_);}
	.st1{opacity:0.35;fill:#FFFFFF;enable-background:new    ;}
	.st2{opacity:0.6;fill:#FFFFFF;enable-background:new    ;}
	.st3{fill:url(#SVGID_3_);}
	.st4{fill:url(#SVGID_4_);}
	.st5{fill:url(#SVGID_5_);}
	.st6{fill:#CBD3EB;}
	.st7{clip-path:url(#SVGID_7_);}
	.st8{fill:#D6DCF0;}
	.st9{opacity:0.5;fill:#FFFFFF;enable-background:new    ;}
	.st10{fill:url(#SVGID_8_);}
	.st11{fill:#413C97;}
	.st12{fill:#6669B0;}
	.st13{fill:url(#SVGID_9_);}
	.st14{fill:#2A276F;}
	.st15{fill:url(#SVGID_10_);}
	.st16{fill:url(#SVGID_11_);}
	.st17{fill:#242967;}
	.st18{fill:#29266E;}
	.st19{fill:url(#SVGID_12_);}
	.st20{fill:url(#SVGID_13_);}
	.st21{fill:#FED2A7;}
	.st22{fill:url(#SVGID_14_);}
	.st23{fill:#FBBB8F;}
	.st24{fill:url(#SVGID_15_);}
	.st25{fill:#D25927;}
	.st26{fill:url(#SVGID_16_);}
	.st27{fill:url(#SVGID_17_);}
	.st28{fill:#101013;}
	.st29{fill:url(#SVGID_18_);}
	.st30{fill:url(#SVGID_19_);}
	.st31{fill:url(#SVGID_20_);}
	.st32{fill:url(#SVGID_21_);}
	.st33{fill:url(#SVGID_22_);}
	.st34{fill:url(#SVGID_23_);}
	.st35{fill:url(#SVGID_24_);}
	.st36{fill:#33308E;}
	.st37{fill:url(#SVGID_25_);}
	.st38{fill:#87AFDD;}
	.st39{fill:url(#SVGID_26_);}
	.st40{fill:url(#SVGID_27_);}
	.st41{fill:#C0C9E7;}
	.st42{fill:#FFFFFF;}
	.st43{opacity:0.5;fill:#EEF1F9;enable-background:new    ;}
	.st44{fill:#EEF1F9;}
	.st45{fill:#B3B4D8;}
	.st46{fill:#E4E8F5;}
</style>
<g>
	<defs>
		<path id="SVGID_1_" d="M-912.9,322.4c215.1,61.9,576.3,253.3,560,692.8s-399.7,212.8-687.7,609.9
			c-214.7,296.1-1113.6-108.8-582.9-978.5C-1412.1,300.3-1099.5,268.7-912.9,322.4z"/>
	</defs>
	<clipPath id="SVGID_2_">
		<use xlink:href="#SVGID_1_"  style="overflow:visible;"/>
	</clipPath>
	<g class="st0">
		<rect x="-1104.3" y="140.9" class="st1" width="1355.5" height="1545.5"/>
		<polygon class="st2" points="-201.9,1639.6 -254.5,1639.6 229,300.8 229,408.6 		"/>
		
			<linearGradient id="SVGID_3_" gradientUnits="userSpaceOnUse" x1="-2481.27" y1="1023.99" x2="308.17" y2="1023.99" gradientTransform="matrix(1 0 0 -1 0 2000)">
			<stop  offset="0" style="stop-color:#FFFFFF"/>
			<stop  offset="1" style="stop-color:#D4DBEA"/>
		</linearGradient>
		<path class="st3" d="M308.2,479.3v-17.7h-48.7V182.8h-2740.7v35.4h29.5v12.5h874.1v230.9h-903.7v17.7h903.7v453.9h-903.7v17.7
			h903.7v453.9h-903.7v17.7h903.7v295.7h-873.8v10.2h-29.8v40.9H259.5v-3.3l0,0v-343.6h48.7v-17.7h-48.7V950.8h48.7v-17.7h-48.7
			V479.3H308.2z M-1096,950.8h422.2v453.9H-1096V950.8z M-1096,933.1V479.3h422.2v453.9H-1096z M-1096,461.6V230.7h422.2v230.9
			H-1096z M-1096,1422.3h422.2v295.7h-422v10.2h-0.2L-1096,1422.3z M-644.2,1718.1v-295.7H-222v295.7H-644.2z M-644.2,1404.6V950.8
			H-222v453.9L-644.2,1404.6z M-644.2,933.1V479.3H-222v453.9L-644.2,933.1z M-644.2,461.6V230.7H-222v230.9L-644.2,461.6z
			 M-192.4,230.7h422.2v230.9h-422.2L-192.4,230.7z M-1547.9,230.7h422.2v230.9H-1548L-1547.9,230.7z M-1547.9,479.3h422.2v453.9
			H-1548L-1547.9,479.3z M-1547.9,950.8h422.2v453.8H-1548L-1547.9,950.8z M-1547.9,1422.3h422.2v306h-0.2v-10.2h-422
			L-1547.9,1422.3z M229.8,1728.3h-0.2v-10.2h-422v-295.8h422.1L229.8,1728.3z M229.8,1404.7h-422.2V950.8h422.2L229.8,1404.7z
			 M229.8,933.2h-422.2V479.3h422.2L229.8,933.2z"/>
	</g>
</g>
<linearGradient id="SVGID_4_" gradientUnits="userSpaceOnUse" x1="128.2987" y1="990.9756" x2="1683.715" y2="990.9756" gradientTransform="matrix(1 0 0 -1 0 2000)">
	<stop  offset="0" style="stop-color:#FFFFFF"/>
	<stop  offset="1" style="stop-color:#D4DBEA"/>
</linearGradient>
<path class="st4" d="M820.8,306.5c210.7,41.5,318.2,280.1,657.5,492.5s264.6,1041.4-271.2,906.2c-511.2-129-534.8-118.8-869.6-106.9
	C-81.6,1613.2,154.1,175.2,820.8,306.5z"/>
<linearGradient id="SVGID_5_" gradientUnits="userSpaceOnUse" x1="1244.3007" y1="1505.6377" x2="1557.3164" y2="1505.6377" gradientTransform="matrix(1 0 0 -1 0 2000)">
	<stop  offset="0" style="stop-color:#FFFFFF"/>
	<stop  offset="1" style="stop-color:#D4DBEA"/>
</linearGradient>
<path class="st5" d="M1392.2,656.3c-98.9-78.7-181.2-216-134.4-348.3s143.5,114,221.3,196C1591.6,622.7,1599.1,821,1392.2,656.3z"/>
<rect x="169.4" y="1720.1" class="st6" width="1462" height="10.2"/>
<g>
	<defs>
		<path id="SVGID_6_" d="M820.8,306.5c210.7,41.5,318.2,280.1,657.5,492.5s264.6,1041.4-271.2,906.2
			c-511.2-129-534.8-118.8-869.6-106.9C-81.6,1613.2,154.1,175.2,820.8,306.5z"/>
	</defs>
	<clipPath id="SVGID_7_">
		<use xlink:href="#SVGID_6_"  style="overflow:visible;"/>
	</clipPath>
	<g class="st7">
		<polygon class="st6" points="467.5,736.7 467.5,682 558.3,682 558.3,420.4 583.3,420.4 583.3,682 681,682 681,736.7 733.4,736.7 
			733.4,1833.2 355.8,1833.2 355.8,736.7 		"/>
		<rect x="355.8" y="736.7" class="st8" width="52.4" height="986.4"/>
		<rect x="544.6" y="997.9" class="st6" width="377.6" height="835.3"/>
		<rect x="544.6" y="997.9" class="st8" width="52.4" height="835.3"/>
		<rect x="815.3" y="1033.5" class="st8" width="54.2" height="22.5"/>
		<rect x="724.1" y="1033.5" class="st8" width="54.2" height="22.5"/>
		<rect x="815.3" y="1115.4" class="st8" width="54.2" height="22.5"/>
		<rect x="724.1" y="1115.4" class="st8" width="54.2" height="22.5"/>
		<rect x="632.9" y="1115.4" class="st8" width="54.2" height="22.5"/>
		<rect x="815.3" y="1197.3" class="st8" width="54.2" height="22.5"/>
		<rect x="632.9" y="1197.3" class="st8" width="54.2" height="22.5"/>
		<rect x="724.1" y="1238.2" class="st8" width="54.2" height="22.5"/>
		<rect x="815.3" y="1279.2" class="st8" width="54.2" height="22.5"/>
		<rect x="724.1" y="1320.1" class="st8" width="54.2" height="22.5"/>
		<rect x="815.3" y="1361" class="st8" width="54.2" height="22.5"/>
		<rect x="632.9" y="1361" class="st8" width="54.2" height="22.5"/>
		<rect x="815.3" y="1436.7" class="st8" width="54.2" height="22.5"/>
		<rect x="724.1" y="1436.7" class="st8" width="54.2" height="22.5"/>
		<rect x="815.3" y="1518.6" class="st8" width="54.2" height="22.5"/>
		<rect x="724.1" y="1518.6" class="st8" width="54.2" height="22.5"/>
		<rect x="632.9" y="1518.6" class="st8" width="54.2" height="22.5"/>
		<rect x="815.3" y="1600.5" class="st8" width="54.2" height="22.5"/>
		<rect x="632.9" y="1600.5" class="st8" width="54.2" height="22.5"/>
		<rect x="724.1" y="1641.4" class="st8" width="54.2" height="22.5"/>
		<rect x="632.9" y="1641.4" class="st8" width="54.2" height="22.5"/>
		<rect x="815.3" y="1682.4" class="st8" width="54.2" height="22.5"/>
		<rect x="724.1" y="1723.3" class="st8" width="54.2" height="22.5"/>
		<rect x="815.3" y="1764.3" class="st8" width="54.2" height="22.5"/>
		<rect x="632.9" y="1764.3" class="st8" width="54.2" height="22.5"/>
		<rect x="1448.2" y="997.9" class="st6" width="377.6" height="835.3"/>
		<rect x="1448.2" y="997.9" class="st8" width="52.4" height="835.3"/>
		<rect x="911.7" y="600.6" class="st6" width="506.7" height="1232.7"/>
		<rect x="911.7" y="600.6" class="st8" width="52.4" height="1232.7"/>
		<rect x="1285.9" y="659.6" class="st8" width="79.1" height="32.8"/>
		<rect x="1152.7" y="659.6" class="st8" width="79.1" height="32.8"/>
		<rect x="1285.9" y="779.2" class="st8" width="79.1" height="32.8"/>
		<rect x="1152.7" y="779.2" class="st8" width="79.1" height="32.8"/>
		<rect x="1019.4" y="779.2" class="st8" width="79.1" height="32.8"/>
		<rect x="1285.9" y="898.8" class="st8" width="79.1" height="32.8"/>
		<rect x="1019.4" y="898.8" class="st8" width="79.1" height="32.8"/>
		<rect x="1152.7" y="958.5" class="st8" width="79.1" height="32.8"/>
		<rect x="1285.9" y="1018.3" class="st8" width="79.1" height="32.9"/>
		<rect x="1152.7" y="1078.1" class="st8" width="79.1" height="32.8"/>
		<rect x="1285.9" y="1137.9" class="st8" width="79.1" height="32.8"/>
		<rect x="1019.4" y="1137.9" class="st8" width="79.1" height="32.8"/>
		<rect x="1285.9" y="1248.4" class="st8" width="79.1" height="32.8"/>
		<rect x="1152.7" y="1248.4" class="st8" width="79.1" height="32.8"/>
		<rect x="1285.9" y="1368" class="st8" width="79.1" height="32.8"/>
		<rect x="1152.7" y="1368" class="st8" width="79.1" height="32.8"/>
		<rect x="1019.4" y="1368" class="st8" width="79.1" height="32.8"/>
		<rect x="1285.9" y="1487.6" class="st8" width="79.1" height="32.8"/>
		<rect x="1019.4" y="1487.6" class="st8" width="79.1" height="32.8"/>
		<rect x="1152.7" y="1547.4" class="st8" width="79.1" height="32.8"/>
		<rect x="1019.4" y="1547.4" class="st8" width="79.1" height="32.8"/>
		<rect x="1285.9" y="1607.2" class="st8" width="79.1" height="32.8"/>
		<rect x="1152.7" y="1667" class="st8" width="79.1" height="32.8"/>
		<rect x="1285.9" y="1726.8" class="st8" width="79.1" height="32.8"/>
		<rect x="1019.4" y="1726.8" class="st8" width="79.1" height="32.8"/>
		<rect x="1708.4" y="692.4" class="st6" width="496.6" height="1140.8"/>
		<rect x="1708.4" y="692.4" class="st8" width="51.3" height="1140.8"/>
		<rect x="1944.5" y="747.1" class="st8" width="77.6" height="30.4"/>
		<rect x="1944.5" y="857.7" class="st8" width="77.6" height="30.4"/>
		<rect x="1813.9" y="857.7" class="st8" width="77.6" height="30.4"/>
		<rect x="1813.9" y="968.4" class="st8" width="77.6" height="30.4"/>
		<rect x="1944.5" y="1023.7" class="st8" width="77.6" height="30.4"/>
		<rect x="1944.5" y="1134.4" class="st8" width="77.6" height="30.4"/>
		<rect x="1813.9" y="1189.7" class="st8" width="77.6" height="30.4"/>
		<rect x="1944.5" y="1292" class="st8" width="77.6" height="30.4"/>
		<rect x="1944.5" y="1402.7" class="st8" width="77.6" height="30.4"/>
		<rect x="1813.9" y="1402.7" class="st8" width="77.6" height="30.4"/>
		<rect x="1813.9" y="1513.4" class="st8" width="77.6" height="30.4"/>
		<rect x="1944.5" y="1568.7" class="st8" width="77.6" height="30.4"/>
		<rect x="1813.9" y="1568.7" class="st8" width="77.6" height="30.4"/>
		<rect x="1944.5" y="1679.4" class="st8" width="77.6" height="30.4"/>
		<rect x="1813.9" y="1734.7" class="st8" width="77.6" height="30.4"/>
		<rect x="103.4" y="1055.1" class="st6" width="319.8" height="778.1"/>
		<rect x="103.4" y="1055.1" class="st8" width="33.1" height="778.1"/>
		<rect x="339.6" y="1092.4" class="st8" width="50" height="20.7"/>
		<rect x="255.5" y="1092.4" class="st8" width="50" height="20.7"/>
		<rect x="339.6" y="1167.9" class="st8" width="50" height="20.7"/>
		<rect x="255.5" y="1167.9" class="st8" width="50" height="20.7"/>
		<rect x="171.4" y="1167.9" class="st8" width="49.9" height="20.7"/>
		<rect x="339.6" y="1243.4" class="st8" width="50" height="20.7"/>
		<rect x="171.4" y="1243.4" class="st8" width="49.9" height="20.7"/>
		<rect x="255.5" y="1281.1" class="st8" width="50" height="20.7"/>
		<rect x="339.6" y="1318.8" class="st8" width="50" height="20.7"/>
		<rect x="255.5" y="1356.6" class="st8" width="50" height="20.7"/>
		<rect x="339.6" y="1394.3" class="st8" width="50" height="20.7"/>
		<rect x="171.4" y="1394.3" class="st8" width="49.9" height="20.7"/>
		<rect x="339.6" y="1464.1" class="st8" width="50" height="20.7"/>
		<rect x="255.5" y="1464.1" class="st8" width="50" height="20.7"/>
		<rect x="339.6" y="1539.6" class="st8" width="50" height="20.7"/>
		<rect x="255.5" y="1539.6" class="st8" width="50" height="20.7"/>
		<rect x="171.4" y="1539.6" class="st8" width="49.9" height="20.7"/>
		<rect x="339.6" y="1615.1" class="st8" width="50" height="20.7"/>
		<rect x="171.4" y="1615.1" class="st8" width="49.9" height="20.7"/>
		<rect x="255.5" y="1652.8" class="st8" width="50" height="20.7"/>
		<rect x="171.4" y="1652.8" class="st8" width="49.9" height="20.7"/>
		<rect x="339.6" y="1690.5" class="st8" width="50" height="20.7"/>
		<rect x="255.5" y="1728.3" class="st8" width="50" height="20.7"/>
		<rect x="339.6" y="1766" class="st8" width="50" height="20.7"/>
		<rect x="171.4" y="1766" class="st8" width="49.9" height="20.7"/>
		<rect x="-111.1" y="222.9" class="st1" width="1355.5" height="1545.5"/>
		<polygon class="st9" points="369.7,1739.9 264.5,1739.9 828.4,240 933.6,240 		"/>
		<polygon class="st9" points="183.9,1739.9 131.3,1739.9 695.3,240 747.8,240 		"/>
		<polygon class="st9" points="812,1739.9 759.4,1739.9 1242.9,401 1242.9,508.9 		"/>
		<rect x="1265.6" y="191.8" class="st1" width="1355.5" height="1545.5"/>
		<polygon class="st9" points="1489.8,1739.9 1384.6,1739.9 1948.5,240 2053.7,240 		"/>
		<polygon class="st9" points="1304,1739.9 1251.4,1739.9 1815.4,240 1868,240 		"/>
		
			<linearGradient id="SVGID_8_" gradientUnits="userSpaceOnUse" x1="-111.82" y1="1002.17" x2="2677.6201" y2="1002.17" gradientTransform="matrix(1 0 0 -1 0 2000)">
			<stop  offset="0" style="stop-color:#FFFFFF"/>
			<stop  offset="1" style="stop-color:#D4DBEA"/>
		</linearGradient>
		<path class="st10" d="M2677.6,501.1v-17.7h-48.7V204.7H-111.8V240h29.5v12.5h874.1v230.9h-903.7v17.7h903.7V955h-903.7v17.7h903.7
			v453.9h-903.7v17.7h903.7v295.7H-82v10.2h-29.8v40.9h2740.7v-3.3l0,0v-343.5h48.7v-17.7h-48.7V972.6h48.7V955h-48.7V501.1H2677.6z
			 M1273.4,972.6h422.2v453.8h-422.2V972.6z M1273.4,955V501.1h422.2V955L1273.4,955z M1273.4,483.4V252.5h422.2v230.9H1273.4z
			 M1273.4,1444.2h422.2v295.7h-422v10.2h-0.2L1273.4,1444.2z M1725.3,1739.9v-295.7h422.2v295.7H1725.3z M1725.3,1426.5V972.6
			h422.2v453.8H1725.3z M1725.3,954.9V501.1h422.2V955L1725.3,954.9z M1725.3,483.4V252.5h422.2v230.9L1725.3,483.4z M821.5,252.5
			h422.2v230.9H821.5V252.5z M821.5,501.1h422.2V955H821.5V501.1z M821.5,972.6h422.2v453.8H821.5V972.6z M821.5,1444.2h422.2v306
			h-0.2v-10.3h-422L821.5,1444.2z"/>
	</g>
</g>
<path class="st11" d="M447.6,875v-78H288.9v-65.1l168.3-246.4h62.5v246.1h48.1V797h-48.1v78H447.6z M447.6,731.6V599.1l-89.2,132.6
	L447.6,731.6z"/>
<polygon class="st11" points="679.3,777.3 719.1,777.8 679.3,777.9 "/>
<polygon class="st6" points="719.1,777.8 791.6,777.5 791.6,778.5 "/>
<path class="st12" d="M0,0"/>
<linearGradient id="SVGID_9_" gradientUnits="userSpaceOnUse" x1="999" y1="520.942" x2="1261.3596" y2="520.942" gradientTransform="matrix(1 0 0 -1 0 2000)">
	<stop  offset="0" style="stop-color:#6669B0"/>
	<stop  offset="1" style="stop-color:#33308E"/>
</linearGradient>
<path class="st13" d="M1247,1348.3l-98.9-34c-9.8-3.4-21.7,1.7-26.5,11.3L999,1574.2l8.3,2.9l122-247.6c2.8-5.6,10.1-8.7,15.8-6.7
	l98.9,34c5.7,2,9.6,8.8,8.3,15l-56.1,270.2l8.3,2.9l56.3-271.5C1263,1362.9,1256.8,1351.6,1247,1348.3z"/>
<path class="st14" d="M1258.8,1352.3l-92.2-31.3c-9.8-3.4-34.3-3.1-39.2,6.4L1007,1577l12.1,4.2l121.9-247.6
	c2.9-5.6,19-5.6,24.8-3.7l88,30.3c5.8,2,4,8,2.8,14.2l-57,268.8l17,5.8l56.4-271.5C1274.9,1367,1268.6,1355.7,1258.8,1352.3z"/>
<path class="st14" d="M1454.1,1418.8l-112.9-38.8c-9.8-3.4-25.3,0.7-30.4,10.6l-120.4,249.5l12.2,4.2l121.8-247.5
	c2.9-5.8,10.3-9.1,16-7.1l108.2,37.2c5.8,2,1.7,4.9,0.5,11.3l-41.9,276.4l15.4,5.3l45.2-275.3
	C1470,1433.8,1463.8,1422.2,1454.1,1418.8z"/>
<linearGradient id="SVGID_10_" gradientUnits="userSpaceOnUse" x1="1182.4" y1="454.1617" x2="1457.0529" y2="454.1617" gradientTransform="matrix(1 0 0 -1 0 2000)">
	<stop  offset="0" style="stop-color:#6669B0"/>
	<stop  offset="1" style="stop-color:#33308E"/>
</linearGradient>
<path class="st15" d="M1442.3,1414.8l-110.6-38c-9.8-3.4-21.8,2-26.8,11.9l-122.5,248.7l8.3,2.9l121.9-247.5
	c2.9-5.8,10.3-9.1,16-7.1l110.6,38c5.8,2,9.9,9.2,8.9,15.8l-45.7,273.7l8.5,2.9l45.9-275.4C1458.5,1429.6,1452,1418.1,1442.3,1414.8
	z"/>
<path class="st14" d="M1463.7,1412.2l11.2,3.8c12.6-13.7,46-71,67.9-115.8c2.6-5.4,4.7-9.6,5.9-11.8l2.1-4l-7.7-4.2
	C1518.6,1326.3,1465.9,1410.8,1463.7,1412.2z"/>
<linearGradient id="SVGID_11_" gradientUnits="userSpaceOnUse" x1="1457.55" y1="653.3199" x2="1541.55" y2="653.3199" gradientTransform="matrix(1 0 0 -1 0 2000)">
	<stop  offset="0" style="stop-color:#6669B0"/>
	<stop  offset="1" style="stop-color:#33308E"/>
</linearGradient>
<path class="st16" d="M1457.6,1410.1l8.8,3c12.6-12.6,46.7-70.4,69.5-117c2.6-5.2,4.6-9.4,5.8-11.6l-7.7-4.2
	C1506.4,1343.3,1460.3,1408.1,1457.6,1410.1z"/>
<path class="st17" d="M1360.7,1234.6c-6.5,13-40.5,73.1-51.1,91.4c-8.7,14.9-14.5,22.7-18.3,26.9l8.3,2.9
	c12.8-14.8,46.6-72.4,68.9-117.2c2.3-4.7,7.4-14.4,7.4-14.4l-7.7-4.2C1368.2,1220,1363.1,1229.8,1360.7,1234.6z"/>
<path class="st14" d="M1283.4,1350.1l8.6,2.9c12.6-13.3,46.4-70.9,68.9-116.9c2.6-5.4,4.7-9.7,5.9-11.8l-7.7-4.2
	C1318.2,1309.9,1286.6,1347.4,1283.4,1350.1z"/>
<path class="st18" d="M1640.8,1123.7l-165.4-56.9c-15.7-5.4-34.5,1.6-41.8,15.4l-73.5,143.1c0,0,50,28.6,117.3,51.8
	s96.2,21.7,96.2,21.7l82.4-140.1C1663.3,1144.9,1656.4,1129.1,1640.8,1123.7z"/>
<linearGradient id="SVGID_12_" gradientUnits="userSpaceOnUse" x1="1337.0499" y1="822.8987" x2="1644.7755" y2="822.8987" gradientTransform="matrix(1 0 0 -1 0 2000)">
	<stop  offset="0" style="stop-color:#6669B0"/>
	<stop  offset="1" style="stop-color:#33308E"/>
</linearGradient>
<path class="st19" d="M1626.7,1118.9l-165.4-56.9c-15.7-5.4-34.5,1.6-41.8,15.4l-82.4,140.1c0,0,58.9,31.7,126.2,54.8
	s96.2,21.7,96.2,21.7l82.4-140.1C1649.2,1140,1642.3,1124.3,1626.7,1118.9z"/>
<path class="st18" d="M1285.6,1348c-0.2,0.4-0.4,0.8-0.6,1.3c-3.7,10.7-0.6,21.4,6.8,24l173,59.5c7.4,2.6,16.5-4,20.2-14.7
	c0.2-0.4,0.2-0.9,0.4-1.4L1285.6,1348z"/>
<linearGradient id="SVGID_13_" gradientUnits="userSpaceOnUse" x1="1114.2054" y1="661.9729" x2="1350.01" y2="661.9729" gradientTransform="matrix(1 0 0 -1 0 2000)">
	<stop  offset="0" style="stop-color:#6669B0"/>
	<stop  offset="1" style="stop-color:#33308E"/>
</linearGradient>
<path class="st20" d="M1116.2,1289.7c-0.2,0.4-0.4,0.8-0.6,1.3c-3.7,10.7,0.2,21.7,8.7,24.7l203.4,69.9c8.5,2.9,18.3-3.4,22-14.1
	c0.2-0.4,0.2-0.9,0.3-1.4L1116.2,1289.7z"/>
<path class="st21" d="M1400.4,1020.7c-27.8-13.1-103.8-97.4-120.3-113.8c-19.8-19.8-5.1-51.2,20.2-47.3
	c21.6,3.3,131.2,95.8,141.5,109.6C1460.5,993.9,1435.2,1037.1,1400.4,1020.7z"/>
<path class="st11" d="M1314.1,957.8c28.5,27.5,86.6,65.7,100.7,72.3c34.8,16.4,60-26.8,41.4-51.6c-5.8-7.7-51.1-50.6-91.9-80.3
	C1349.1,897.9,1314.8,928.3,1314.1,957.8z"/>
<path class="st11" d="M1528.3,935.1c0,0-24,43.2-3.7,50.7s56.5,25.8,63.3,48.4c6.8,22.6-32.5,187.4-89.3,297.5
	c0,0-152.7-4.6-196.2-97.7c0,0,57.9-237.7,89.4-261.9c26.3-20.2,67-3.8,67-3.8s15.1-5.8,18.6-29.2
	C1486,882,1528.3,935.1,1528.3,935.1z"/>
<linearGradient id="SVGID_14_" gradientUnits="userSpaceOnUse" x1="-655.2934" y1="546.8948" x2="-389.9034" y2="546.8948" gradientTransform="matrix(0.9381 0.3464 0.3464 -0.9381 1821.8828 1624.4137)">
	<stop  offset="0" style="stop-color:#FFD10A"/>
	<stop  offset="1" style="stop-color:#F47521"/>
</linearGradient>
<path class="st22" d="M1525.3,941.2c1.7-3.7,3-6,3-6s-34-42.7-47.3-10.3L1525.3,941.2z"/>
<path class="st14" d="M1588,1034.3c-1.6-4.9-4.2-9.4-7.5-13.3l-92.5,144.3l-185.6,68.9c43.6,93,196.2,97.7,196.2,97.7
	C1555.5,1221.7,1594.8,1057,1588,1034.3z"/>
<path class="st21" d="M1540.6,992.7c-26,23.2-59.8,29.3-82,12.6c-12.8-9.5-19.4-24.8-20-42.1c6.9,1,13.7,2.8,20.2,5.2
	c0,0,15.1-5.8,18.6-29.3c8.6-57.2,51-4,51-4s-24.1,43.2-3.7,50.7C1529.3,987.6,1534.8,989.9,1540.6,992.7z"/>
<path class="st21" d="M1540.6,992.7c-26,23.2-59.8,29.3-82,12.6c-12.8-9.5-19.4-24.8-20-42.1c6.9,1,13.7,2.8,20.2,5.2
	c0,0,15.1-5.8,18.6-29.3c8.6-57.2,51-4,51-4s-24.1,43.2-3.7,50.7C1529.3,987.6,1534.8,989.9,1540.6,992.7z"/>
<path class="st23" d="M1524.6,985.9c-20.4-7.5,3.7-50.7,3.7-50.7s-2.2-2.7-5.7-6.3l-7.9,21.3c-10.8,29.2-43.2,44.1-72.4,33.3
	c0,0,0,0,0,0l0,0c3.1,8.7,8.7,16.3,16.1,21.8c22.3,16.6,56,10.5,82-12.6C1534.8,989.9,1529.3,987.6,1524.6,985.9z"/>
<polygon class="st14" points="1476.5,877.1 1477.2,875.4 1460.5,869.2 1459.8,871 "/>
<path class="st21" d="M1481.7,841.1l-23.6,63.8c-7,18.8,3.5,40,23.3,47.3l0,0c19.8,7.3,41.5-2,48.5-20.8l0.6-1.6
	c0,0,21.1,6.1,28.8-14.7s-9.1-17.4-9.1-17.4l10.2-27.6L1481.7,841.1z"/>
<path class="st23" d="M1550.2,897.7l10.2-27.6l-27.9-10.3c-0.1,0.2-0.1,0.4-0.2,0.6l-26.7,72.2c-4.7,12.6-20.3,18.5-32.3,13.5
	c-3.6-1.5-6.8-3.8-9.3-6.8c4.5,5.8,10.6,10.3,17.5,12.8c19.8,7.3,41.5-2,48.5-20.8l0.6-1.6c0,0,21.1,6.1,28.8-14.7
	S1550.2,897.7,1550.2,897.7z"/>
<path class="st14" d="M1549.4,898.2c0,0-12.9,16.5-8.5-7.7s-3-25.8-29-33.5s-58.2-30.4-33-56.6c24.8-25.8,70.8,17,70.8,17
	s44.2,2.7,39.3,36.5S1549.4,898.2,1549.4,898.2z"/>
<path class="st21" d="M1589,1031.1c18.2,24.7,45.4,137.6,52,159.8c8,26.8-13.9,48.2-34.3,32.7c-17.4-13.2-81.3-153.1-83.8-170.1
	C1518.4,1022.8,1566.2,1000.2,1589,1031.1z"/>
<path class="st14" d="M1632.9,1128.4c-13.4-42.5-32.4-85.5-42.9-99.7c-24.8-33.6-75.9-5.9-70.9,27.4c1.3,8.3,18.2,51,36.5,91.1
	C1590.8,1150.8,1628.4,1133.4,1632.9,1128.4z"/>
<path class="st21" d="M953.9,1169.5l1.8-28.8c-32.8,2.1-59.7-4.7-39.1-46.2c9.5-19.1-11.2-35.2-11.2-35.2l-49.1,99.3
	c0,0-0.9,11.9,29.4,9C918.6,1164.6,953.9,1169.5,953.9,1169.5z"/>
<path class="st14" d="M895.1,1133.8c8.9-3.4,16.5,9,21.3,0.4c-8.5-6.6-10.3-18.7,0.1-39.7c9.5-19.1-11.2-35.2-11.2-35.2l-49.1,99.3
	c0,0-0.8,11.1,26.7,9.3C888.1,1157.4,881.7,1138.9,895.1,1133.8z"/>
<path class="st21" d="M896.2,1508.1c34.9,7.3,58.8-31.9,71.5-50.7l27.3,22.9c0,0-30.9,29-37.8,53.6s-12.9,20-12.9,20l-99.8-34.3
	C844.6,1519.6,861.3,1500.8,896.2,1508.1z"/>
<path class="st14" d="M896.2,1508.1c10.5,2.2,23.1-0.6,30.6-5.4c5-3.5,19.5,7.3,19.1,17.3c0,0,5,7,13.1,9c-0.6,1.7-1.2,3.3-1.7,4.9
	c-6.8,24.6-12.9,20-12.9,20l-99.8-34.3C844.6,1519.6,861.3,1500.8,896.2,1508.1z"/>
<path class="st21" d="M1612,1182.1c38.1-6.4,158.1,9.7,178.8-1.9s59.6-18.8,73.8-6.9c14.5,12.1,4.7,23.1-10.8,32
	c-9.9,5.7-21.4,10.5-47.7,7.4s-137.8,21.1-176.6,22.1C1591,1235.8,1586.2,1186.5,1612,1182.1z M1322.2,896.6
	c6.3-38.1-10.3-145.3,1.1-166.1s18.5-46.9,6.7-61.1c-12.1-14.4-32-14.5-32,11c0,11.4-10.4,21.5-7.2,47.7s-20.6,112.4-21.4,151.2
	C1268.6,917.8,1317.9,922.4,1322.2,896.6z M0,0"/>
<polygon class="st14" points="1499.6,883.5 1500.2,881.8 1492,878.8 1491.4,880.5 "/>
<polygon class="st14" points="1545.7,902.7 1546.3,901 1529.6,894.8 1529,896.5 "/>
<linearGradient id="SVGID_15_" gradientUnits="userSpaceOnUse" x1="944.77" y1="649.2725" x2="1441.7302" y2="649.2725" gradientTransform="matrix(1 0 0 -1 0 2000)">
	<stop  offset="0" style="stop-color:#FBAD18"/>
	<stop  offset="1" style="stop-color:#F47820"/>
</linearGradient>
<path class="st24" d="M1302.4,1284.8c-64.8-50.3-144.9-94.7-185.8-85c-7.2,1.7-13.2,5.1-17.7,10.4c-2.4,2.8-4.4,5.9-6.2,9.1
	l-0.1-0.1c0,0-111.4,194.5-147.8,252.2c0,0,26.1,27.3,50,31.6c0,0,118.8-118.7,150.9-188.9c2.3,1.3,4.4,2.6,6.4,3.6l1.2,0.6
	c0.2,0.1,0.4,0.2,0.6,0.3s0.5,0.3,0.8,0.4c1,0.5,1.9,0.9,2.8,1.3c3.8,1.6,8.2,3.3,13.1,5c0.7,0.3,1.4,0.5,2.2,0.7
	c13.6,4.6,30.9,9.5,49.5,14.3c1.4,0.4,2.7,0.7,4.1,1.1c2.9,0.7,5.8,1.5,8.7,2.2c1.7,0.4,3.4,0.9,5.2,1.3c9.8,2.4,19.8,4.8,29.6,7.1
	c2.6,0.6,5.1,1.2,7.6,1.8l1.8,0.4c0.9,0.2,1.9,0.4,2.8,0.6c11.8,2.7,23.1,5.2,33.3,7.4c27.9,6,47.8,10,47.8,10s50.1,15.6,75.4-4
	C1461.6,1350.4,1352.6,1307.1,1302.4,1284.8z"/>
<path class="st25" d="M1136.8,1308.6c1.1,0.7,2.1,1.4,3.2,2.1c1.8,1.2,3.6,2.3,5.3,3.3c2.4,1.4,4.7,2.7,6.7,3.8l1.2,0.6
	c0.2,0.1,0.4,0.2,0.6,0.3s0.5,0.3,0.8,0.4c1,0.5,1.9,0.9,2.8,1.3c3.8,1.6,8.2,3.3,13.1,5c0.7,0.3,1.4,0.5,2.2,0.7
	c13.6,4.6,30.9,9.5,49.5,14.3c1.4,0.4,2.7,0.7,4.1,1.1c2.9,0.7,5.8,1.5,8.7,2.2c1.7,0.4,3.4,0.9,5.2,1.3c9.8,2.4,19.8,4.8,29.6,7.1
	c2.6,0.6,5.1,1.2,7.6,1.8l1.8,0.4c0.9,0.2,1.9,0.4,2.8,0.6c11.8,2.7,23.1,5.2,33.3,7.4c27.9,6,47.8,10,47.8,10s50.1,15.6,75.4-4
	c23.1-17.8-86-61.1-136.2-83.5c-64.8-50.3-144.9-94.7-185.8-85c98.5,12.8,130.5,75.2,113.2,100.6
	C1202.7,1340.1,1141.2,1307.4,1136.8,1308.6z"/>
<linearGradient id="SVGID_16_" gradientUnits="userSpaceOnUse" x1="930.277" y1="777.4454" x2="1500.0801" y2="777.4454" gradientTransform="matrix(1 0 0 -1 0 2000)">
	<stop  offset="0" style="stop-color:#FBAD18"/>
	<stop  offset="1" style="stop-color:#F47820"/>
</linearGradient>
<path class="st26" d="M1222.2,1066.3c-4.2-0.7-8.4-0.3-12.4,1.1c-26.8,7.7-239.6,68.3-275.8,67c0,0-7,36.3-1.9,70.4
	c0,0,216.9-21.8,266-28.9c39.3,43.5,100.3,135.3,152.5,176c57.1,44.5,127.4,32.4,149.4-21.1
	C1500.1,1330.8,1338.9,1084.2,1222.2,1066.3z"/>
<rect x="1488.1" y="1269.1" class="st18" width="22.4" height="450.9"/>
<polygon class="st18" points="862.6,1719.9 882.5,1719.9 882.5,1478 882.5,1269.1 862.6,1269.1 "/>
<rect x="1264.3" y="1257.5" class="st14" width="274.1" height="11.6"/>
<rect x="443.7" y="1257.5" class="st18" width="820.5" height="11.6"/>
<rect x="1203.7" y="1269.1" class="st18" width="25.2" height="450.9"/>
<polygon class="st18" points="487.9,1719.9 510.3,1719.9 510.3,1478 510.3,1269.1 487.9,1269.1 "/>
<rect x="1324.3" y="1236.8" class="st18" width="274.1" height="20.7"/>
<linearGradient id="SVGID_17_" gradientUnits="userSpaceOnUse" x1="411.87" y1="752.8699" x2="1325.87" y2="752.8699" gradientTransform="matrix(1 0 0 -1 0 2000)">
	<stop  offset="0" style="stop-color:#6669B0"/>
	<stop  offset="1" style="stop-color:#33308E"/>
</linearGradient>
<rect x="411.9" y="1236.8" class="st27" width="914" height="20.7"/>
<path class="st12" d="M1026.1,1171.4c0.2,0.7,0.9,1.2,1.7,1c0,0,0,0,0,0l229.5-63.9c1.5-0.4,2.3-1.9,1.9-3.4c0,0,0,0,0,0l-1.8-6.4
	l-233.5,65L1026.1,1171.4z"/>
<path class="st12" d="M0,0"/>
<path class="st28" d="M1037.5,1156.9l0.8,2.7l8.2-2.3l-1-3.6l-7.3,2C1037.7,1155.9,1037.4,1156.4,1037.5,1156.9
	C1037.5,1156.9,1037.5,1156.9,1037.5,1156.9z"/>
<path class="st11" d="M1177.9,1117.8l0.8,2.7l28.2-7.8l-1-3.6l-27.3,7.6C1178.1,1116.8,1177.8,1117.3,1177.9,1117.8
	C1177.9,1117.8,1177.9,1117.8,1177.9,1117.8z"/>
<path class="st28" d="M1006.6,1165.5l0.8,2.7l28.2-7.8l-1-3.6l-27.3,7.6C1006.8,1164.5,1006.5,1165,1006.6,1165.5z"/>
<path class="st11" d="M1057.4,1151.4l0.8,2.7l97.8-27.2l-1-3.6l-96.9,27C1057.6,1150.4,1057.3,1150.9,1057.4,1151.4z"/>
<linearGradient id="SVGID_18_" gradientUnits="userSpaceOnUse" x1="1607.7633" y1="1219.6649" x2="1631.4066" y2="1219.6649" gradientTransform="matrix(0.9634 -0.2682 -0.2682 -0.9634 -266.8917 2787.1902)">
	<stop  offset="0" style="stop-color:#9FCBED"/>
	<stop  offset="1" style="stop-color:#D6E8F7"/>
</linearGradient>
<path class="st29" d="M976.2,1173.1l-19.9,5.5c-1.1,0.3-1.8,1.5-1.5,2.6c0,0,0,0,0,0l0.4,1.6l22.8-6.3l-0.8-2.7
	C977.2,1173.2,976.7,1172.9,976.2,1173.1C976.2,1173.1,976.2,1173.1,976.2,1173.1z"/>
<linearGradient id="SVGID_19_" gradientUnits="userSpaceOnUse" x1="1579.2795" y1="1219.6656" x2="1602.9229" y2="1219.6656" gradientTransform="matrix(0.9634 -0.2682 -0.2682 -0.9634 -266.8917 2787.1902)">
	<stop  offset="0" style="stop-color:#9FCBED"/>
	<stop  offset="1" style="stop-color:#D6E8F7"/>
</linearGradient>
<path class="st30" d="M948.7,1180.7l-19.9,5.5c-1.1,0.3-1.8,1.5-1.5,2.6c0,0,0,0,0,0l0.4,1.6l22.8-6.3l-0.8-2.7
	C949.7,1180.9,949.2,1180.6,948.7,1180.7z"/>
<linearGradient id="SVGID_20_" gradientUnits="userSpaceOnUse" x1="1550.7916" y1="1219.6664" x2="1574.4489" y2="1219.6664" gradientTransform="matrix(0.9634 -0.2682 -0.2682 -0.9634 -266.8917 2787.1902)">
	<stop  offset="0" style="stop-color:#9FCBED"/>
	<stop  offset="1" style="stop-color:#D6E8F7"/>
</linearGradient>
<path class="st31" d="M921.3,1188.3l-19.9,5.5c-1.1,0.3-1.8,1.5-1.5,2.6c0,0,0,0,0,0l0.4,1.6l22.8-6.3l-0.7-2.7
	C922.3,1188.5,921.8,1188.2,921.3,1188.3z"/>
<linearGradient id="SVGID_21_" gradientUnits="userSpaceOnUse" x1="1522.2964" y1="1219.6617" x2="1545.9493" y2="1219.6617" gradientTransform="matrix(0.9634 -0.2682 -0.2682 -0.9634 -266.8917 2787.1902)">
	<stop  offset="0" style="stop-color:#9FCBED"/>
	<stop  offset="1" style="stop-color:#D6E8F7"/>
</linearGradient>
<path class="st32" d="M893.8,1196l-19.8,5.5c-1.1,0.3-1.8,1.5-1.5,2.6c0,0,0,0,0,0l0.4,1.6l22.8-6.3l-0.7-2.7
	C894.9,1196.1,894.3,1195.9,893.8,1196z"/>
<linearGradient id="SVGID_22_" gradientUnits="userSpaceOnUse" x1="1498.5881" y1="1219.6368" x2="1512.4169" y2="1219.6368" gradientTransform="matrix(0.9634 -0.2682 -0.2682 -0.9634 -266.8917 2787.1902)">
	<stop  offset="0" style="stop-color:#9FCBED"/>
	<stop  offset="1" style="stop-color:#D6E8F7"/>
</linearGradient>
<path class="st33" d="M861.5,1205l-10.4,2.9c-1.1,0.3-1.8,1.5-1.5,2.6l0.4,1.6l13.3-3.7l-0.8-2.7
	C862.5,1205.2,862,1204.9,861.5,1205z"/>
<linearGradient id="SVGID_23_" gradientUnits="userSpaceOnUse" x1="1481.7964" y1="1219.6608" x2="1495.6155" y2="1219.6608" gradientTransform="matrix(0.9634 -0.2682 -0.2682 -0.9634 -266.8917 2787.1902)">
	<stop  offset="0" style="stop-color:#9FCBED"/>
	<stop  offset="1" style="stop-color:#D6E8F7"/>
</linearGradient>
<path class="st34" d="M845.4,1209.5l-10.4,2.9c-1.1,0.3-1.8,1.5-1.5,2.6l0.4,1.6l13.3-3.7l-0.8-2.7
	C846.4,1209.6,845.9,1209.3,845.4,1209.5C845.4,1209.5,845.4,1209.5,845.4,1209.5z"/>
<linearGradient id="SVGID_24_" gradientUnits="userSpaceOnUse" x1="1465.9865" y1="1219.667" x2="1479.8135" y2="1219.667" gradientTransform="matrix(0.9634 -0.2682 -0.2682 -0.9634 -266.8917 2787.1902)">
	<stop  offset="0" style="stop-color:#9FCBED"/>
	<stop  offset="1" style="stop-color:#D6E8F7"/>
</linearGradient>
<path class="st35" d="M830.1,1213.7l-10.4,2.9c-1.1,0.3-1.8,1.5-1.5,2.6l0.4,1.6l13.3-3.7l-0.8-2.7
	C831.1,1213.9,830.6,1213.6,830.1,1213.7C830.1,1213.7,830.1,1213.7,830.1,1213.7z"/>
<path class="st11" d="M961.3,995c-4-6.7-10.6-9.6-19-7.2l105.7,177.8c0,0,9.3-5.7,4.1-14.8C1047.7,1143.1,983.1,1031.3,961.3,995z"
	/>
<path class="st11" d="M0,0"/>
<path class="st36" d="M399.7,1279.7c19.1-2.9,33.7-15,47.8-27.4c2.1-1.9-0.5-5.4-2.6-3.5c-13.1,11.7-26.8,23.3-44.7,26.4
	c4.1-28.5,8.8-56.8,14.4-85c0.5-2.8-3.8-3.4-4.3-0.7c-7.4,37.4-13.4,75-18.1,112.8c-11-15.6-19.5-32.7-25.3-50.8
	c-0.9-2.7-4.9-1-4.1,1.6c6.2,19.2,15.3,37.3,27.1,53.7c0.4,0.5,0.9,0.8,1.6,0.9c-1,8.3-1.9,16.5-2.8,24.8c-8-9.9-14.3-21-18.8-32.9
	c-1-2.6-5-1-4.1,1.6c4.9,13.3,12.2,25.6,21.4,36.4c0.2,0.3,0.6,0.5,0.9,0.6c-2.8,27.2-4.9,54.5-6.4,81.9c-0.2,0.3-0.2,0.6-0.3,0.9
	c-0.6,10-0.9,20-1,30c-0.2,6.5-0.4,13-0.5,19.6c0,0.6,0.2,1.1,0.6,1.5c1.1,61.7,10.3,122.6,23.2,183c1.4-0.3,2.8-0.7,4.3-1
	c-14.6-68.2-24.4-137.2-23.1-207.1c0.3-7.4,0.6-14.7,0.9-22.1c0.6,0.3,1.4,0.2,1.9-0.2c8-5.4,14.8-12.4,20-20.5
	c1.5-2.3-1.9-5.1-3.4-2.7c-4.8,7.4-11.1,13.9-18.3,19c2.4-47.1,6.9-94.1,13.5-140.8C399.6,1279.7,399.6,1279.7,399.7,1279.7z"/>
<linearGradient id="SVGID_25_" gradientUnits="userSpaceOnUse" x1="203.1371" y1="600.0487" x2="359.1607" y2="600.0487" gradientTransform="matrix(1 0 0 -1 0 2000)">
	<stop  offset="0" style="stop-color:#6669B0"/>
	<stop  offset="1" style="stop-color:#33308E"/>
</linearGradient>
<path class="st37" d="M247.8,1406.4c-8.2,3.1-17.1,3.9-25.8,2.2c4.5,12.8,10.5,25,18,36.3c14.1,9.4,48.6,23.5,46.8,24
	c-7.1,2.1-14.5,3.3-21.9,3.7c7.4,6.3,15.5,11.7,24,16.3c17.8,9.7,39.7,14.5,53.2,29.5c0.3,0.3,0.6,0.5,1.1,0.5
	c0.4,0.8,1.4,1,2.2,0.6c0.2-0.1,0.5-0.3,0.6-0.6c22.2-40.4,11.9-84.6,2.1-124.4c-0.5-1.9-0.9-3.7-1.4-5.6
	c-6,11.6-12.9,22.7-22.3,32.7c-1.3,1.4,8.8-38.6,14-57.3c-3.8-9.1-9.3-17.5-16.1-24.7c-14.8-15.3-34.6-27.2-53.5-38
	c-0.8-0.4-1.6-0.8-2.4-1.3c-0.3,9.6-2.1,19.1-5.4,28.2c-0.6,1.6-6.6-23.9-8.7-35.7c-4.6-2.3-9.2-4.6-13.8-6.7
	c-6.2-2.9-14.6-8.5-22.1-4.5c-7.3,3.9-14,38.3-13.1,47.1c0.4,3.8,0.8,7.5,1.4,11.3c0.2,1.6,0.5,3.3,0.8,4.9
	c2.6,15,6.1,29.8,10.4,44.4c0.8,0.5,1.7,1.1,2.6,1.6C227.8,1396.2,249.3,1405.8,247.8,1406.4z"/>
<path class="st36" d="M378.1,1664.3c-6.5-49.6-16.5-98.4-33.4-145.1c0.3-0.4,0.3-0.9,0.1-1.3c-2-4.9-4-9.7-6.1-14.5
	c-3-7.5-6.2-14.9-9.6-22.2c-0.1-0.2-0.3-0.5-0.5-0.6c-9.2-20.1-18.9-39.9-29.2-59.5c0.3-0.2,0.5-0.5,0.6-0.8
	c4.6-10.9,7.2-22.6,7.5-34.4c0.1-2.3-3.9-2.2-3.9,0.1c-0.4,10.6-2.5,21-6.4,30.9c-3.1-5.9-6.3-11.8-9.6-17.7
	c0.5-0.2,0.9-0.6,1.1-1.2c5.3-15.9,7.8-32.5,7.5-49.3c0-2.3-4-2.2-3.9,0.1c0.3,15.8-2,31.5-6.7,46.5c-15-26.8-31.1-53.1-48.2-78.8
	c-1.3-1.9-4.8,0-3.5,1.9c12.9,19.4,25.3,39.1,36.9,59.2c-16,3.6-31.1-0.7-45.6-5.1c-2.3-0.7-3.5,2.8-1.2,3.5
	c15.6,4.7,31.5,9,48.6,4.9c0.1,0,0.1-0.1,0.1-0.1c19.1,32.9,36.6,66.7,52.4,101.4c-7.5-1.4-14.7-4.2-21.1-8.3
	c-2-1.3-4.1,1.9-2.1,3.2c7,4.4,14.8,7.4,23,8.8c0.6,0.1,1.2-0.1,1.7-0.5c2.4,5.4,4.8,10.9,7.2,16.3c21.4,52.1,33.2,107.2,40.5,163.2
	C375.5,1664.8,376.8,1664.5,378.1,1664.3z"/>
<path class="st38" d="M238.7,1353.4c-12.1-2.3-23.6-6.8-34.1-13.3c0.2,1.6,0.5,3.3,0.8,4.9c10,5.7,20.8,9.7,32.1,11.9
	C240,1357.4,241.1,1353.9,238.7,1353.4z"/>
<linearGradient id="SVGID_26_" gradientUnits="userSpaceOnUse" x1="405.007" y1="553.95" x2="608.23" y2="553.95" gradientTransform="matrix(1 0 0 -1 0 2000)">
	<stop  offset="0" style="stop-color:#6669B0"/>
	<stop  offset="1" style="stop-color:#33308E"/>
</linearGradient>
<path class="st39" d="M608.2,1386.2c-0.2,15.8-36.7,23.4-48.3,27.7c-25.6,9.5-50.6,19-69.6,39.7c-22.3,24.3-41.6,52.3-60.9,79.1
	c-1,1.5-2.8,2.3-4.5,2c-0.3,0-2.5-4.5-5.3-11.5c-6.6-16.4-16.8-46.3-14.3-63.4c1.9-11.9,5.8-23.4,11.6-34c1.3,5.4,3.5,10.5,7.3,14.4
	c0.9,0.9,2.9-21.5,4.2-31.7c1.7-2.1,3.4-4.1,5.2-6c4.1-4.5,8.6-8.7,13.5-12.5c1-0.8,2-1.6,3.1-2.4c3.9-2.9,8-5.6,12.3-8.2
	c1.1-0.7,2.3-1.3,3.4-2c4-2.2,8.1-4.2,12.3-6.1c1.2,7.8,3.5,15.3,6.8,22.5c0.7,1.5,2.4-17.8,2.7-26.3c4-1.5,8-2.7,12.1-3.9
	c1.1,5,2.8,9.9,5,14.5c0.5,1.1,6-11.9,7.9-17.7c12.8-2.6,25.9-3.7,39-3.1c1.1,0,2.2,0.1,3.3,0.2c3.5,0.2,7,0.6,10.4,1.2
	c12.6,2,42.1,9.9,42.7,26.9C608.2,1385.9,608.2,1386.1,608.2,1386.2z"/>
<linearGradient id="SVGID_27_" gradientUnits="userSpaceOnUse" x1="0" y1="2000" x2="0" y2="2000" gradientTransform="matrix(1 0 0 -1 0 2000)">
	<stop  offset="0" style="stop-color:#6669B0"/>
	<stop  offset="1" style="stop-color:#33308E"/>
</linearGradient>
<path class="st40" d="M0,0"/>
<path class="st6" d="M506.6,1629.5c0.1,36.5-17.4,70.7-47,92.1H326.2c-36.7-26.6-54.1-72.6-44.2-116.9c1.5-6.7,3.6-13.3,6.3-19.6
	h209.4c2.7,6.3,4.8,12.9,6.3,19.6C505.7,1612.8,506.6,1621.2,506.6,1629.5z"/>
<path class="st41" d="M506.6,1629.5c0.1,36.5-17.4,70.7-47,92.1H326.2c174.3,8.7,171.4-136.5,171.4-136.5c2.7,6.3,4.8,12.9,6.3,19.6
	C505.7,1612.8,506.6,1621.2,506.6,1629.5z"/>
<path class="st42" d="M590.2,1085l3.9-2.1l48,25.3l34.5-20.3l26,56l67-33.6l20,26.7l28.1-56.4l25.7,68.5l25.9-14.1l0.3,0.1
	c-18.5,64.8-79.8,107.8-147,103.2c-78.6-5.4-137.8-73.8-132.5-152.4L590.2,1085z"/>
<path class="st43" d="M590.2,1085l3.9-2.1l48,25.3l34.5-20.3l26,56l67-33.6l20,26.7l28.1-56.4l25.7,68.5l25.9-14.1l0.3,0.1
	c-18.5,64.8-79.8,107.8-147,103.2c-78.6-5.4-137.8-73.8-132.5-152.4L590.2,1085z"/>
<path class="st44" d="M1006.6,619.2"/>
<path class="st44" d="M1044.2,562.9"/>
<path class="st45" d="M883.3,682.6c-0.7-86.8,0.7-89.5-3.6-101.5c-17-47.4-71.3-97-141.9-97.7c-67.2-0.6-123.5,43.5-141.7,90.9
	c-6.7,17.5-2.7,21-2.8,108.3c-0.1,88.6-4.2,92,2.5,109.7c18.5,48.3,75.9,91,141.9,91.2c66.8,0.2,124.9-43.1,143.2-91.7
	C885.8,778.9,884.1,775.7,883.3,682.6z M810.6,600.7c1.4,4.8,1.6,15.7,2.3,37.3c1,30.7-0.9,33.7-2.3,35.2
	c-10.2,11.2-31.3-6.6-71.6-7c-37.4-0.4-57.2,14.6-66.9,3.5c-2.8-3.2-2.7-13.2-2.3-32.9c0.5-27.2,0.7-40.8,1.2-42.3
	c7.5-23.5,34-47.3,66.9-48.1C775.9,545.5,803.5,576,810.6,600.7z M769.3,751.1c-0.4,4.1-2.4,7.7-2.4,7.7c-2.6,4.7-6.5,7.1-7.3,7.6
	c-3.6,2.2-5.1,1.5-6.5,3.5c-0.3,0.4-1,1.5-1,7.7c0,1.9,0,3.7,0.2,8c0.3,6,0.4,6.8,0.2,8.7c-0.3,2.8-0.6,4.8-2.1,6.8
	c-0.5,0.7-3.1,3.9-7.4,3.9c-3.2,0-5.7-1.7-7.2-3.5c-1.3-1.7-1.6-3.3-2.1-6c-0.4-2.7-0.3-3.8-0.1-10.7c0.1-3,0.1-5.3,0-8.1
	c-0.3-5.2-0.8-6-1-6.4c-1.9-2.5-4.7-1-8.6-3.5c-2.9-1.9-4.3-4.7-5.6-7.2c-0.9-1.8-2.3-4.7-2.3-8.6c0,0,0-3.1,1.2-6.4
	c1.4-3.8,9.6-20.2,25.4-20.3C759,724.3,770.3,741.5,769.3,751.1z"/>
<ellipse class="st11" cx="1026.6" cy="588.8" rx="115.1" ry="103.2"/>
<ellipse class="st11" cx="1033.6" cy="764.8" rx="122.3" ry="103.2"/>
<rect x="912.7" y="596.9" class="st46" width="102.5" height="142.1"/>
<circle class="st46" cx="1027.4" cy="587.7" r="61.6"/>
<circle class="st46" cx="1035.6" cy="761.6" r="67.1"/>
</svg>
